<svg xmlns:dc="http://purl.org/dc/elements/1.1/" xmlns:cc="http://creativecommons.org/ns#" xmlns:rdf="http://www.w3.org/1999/02/22-rdf-syntax-ns#" xmlns:svg="http://www.w3.org/2000/svg" xmlns="http://www.w3.org/2000/svg" xmlns:sodipodi="http://sodipodi.sourceforge.net/DTD/sodipodi-0.dtd" xmlns:inkscape="http://www.inkscape.org/namespaces/inkscape" version="1.1" x="0px" y="0px" viewBox="0 0 100 125"><g transform="translate(0,-952.36218)"><path style="text-indent:0;text-transform:none;direction:ltr;block-progression:tb;baseline-shift:baseline;color:#FFFFFF;enable-background:accumulate;" d="m 50,958.36217 c -11.46424,0 -21.17344,7.43419 -24.625,17.75 C 15.96339,978.61037 9,987.17787 9,997.36219 c 0,10.40881 7.27476,19.06771 17,21.34371 l 0,26.6563 a 1.0001,1.0001 0 0 0 1,1 l 46,0 a 1.0001,1.0001 0 0 0 1,-1 l 0,-26.6563 c 9.72523,-2.276 17,-10.9349 17,-21.34371 0,-10.18432 -6.96342,-18.75181 -16.375,-21.25001 -3.45157,-10.31581 -13.16074,-17.75 -24.625,-17.75 z m 0,2 c 10.77939,0 19.86857,7.07736 22.90625,16.84375 a 1.0001,1.0001 0 0 0 0.75,0.6875 C 82.45804,979.98721 89,987.90597 89,997.36219 c 0,9.74711 -6.97186,17.80911 -16.1875,19.59371 a 1.0001,1.0001 0 0 0 -0.8125,1 l 0,16.4063 -44,0 0,-16.4063 a 1.0001,1.0001 0 0 0 -0.8125,-1 C 17.97185,1015.1713 11,1007.1093 11,997.36219 c 0,-9.45622 6.54192,-17.37497 15.34375,-19.46876 a 1.0001,1.0001 0 0 0 0.75,-0.6875 C 30.13142,967.43953 39.22063,960.36217 50,960.36217 z m -22,76.00003 44,0 0,8 -44,0 0,-8 z" fill="#FFFFFF" fill-opacity="1" stroke="none" marker="none" visibility="visible" display="inline" overflow="visible"/></g></svg>