<svg xmlns:dc="http://purl.org/dc/elements/1.1/" xmlns:cc="http://creativecommons.org/ns#" xmlns:rdf="http://www.w3.org/1999/02/22-rdf-syntax-ns#" xmlns:svg="http://www.w3.org/2000/svg" xmlns="http://www.w3.org/2000/svg" xmlns:sodipodi="http://sodipodi.sourceforge.net/DTD/sodipodi-0.dtd" xmlns:inkscape="http://www.inkscape.org/namespaces/inkscape" version="1.1" x="0px" y="0px" viewBox="0 0 100 100"><g transform="translate(0,-952.36218)"><path style="text-indent:0;text-transform:none;direction:ltr;block-progression:tb;baseline-shift:baseline;color:#000000;enable-background:accumulate;" d="m 79.464953,960.3742 a 1.0001,1.0001 0 0 0 -0.5,0.28125 l -45.25,45.24995 a 1.0001,1.0001 0 0 0 -0.2813,0.5938 l -1.4063,12.75 a 1.0001,1.0001 0 0 0 1.0938,1.0938 l 12.7188,-1.4063 a 1.0001,1.0001 0 0 0 0.5937,-0.3125 l 45.2813,-45.25 a 1.0001,1.0001 0 0 0 0,-1.40625 l -11.3126,-11.3125 a 1.0001,1.0001 0 0 0 -0.9374,-0.28125 z m 0.2187,2.40625 9.875,9.90625 -4.2187,4.21875 -9.9063,-9.90625 4.25,-4.21875 z m -5.6563,5.65625 9.9063,9.875 -37.5,37.5 -9.9063,-9.9063 37.5,-37.4687 z m -65.0311996,1.9375 c -0.6624,0.045 -0.9916,0.61958 -1,1 l 0,72 c 10e-5,0.5236 0.4764,1 1,1 l 71.9999996,0 c 0.5236,0 0.9999,-0.4764 1,-1 l 0,-43 c 0.01,-0.52829 -0.4716,-0.99999 -1,-0.99999 -0.5284,0 -1.0075,0.4717 -1,0.99999 l 0,42 -69.9999996,0 0,-70 41.9999996,0 c 0.5283,0.007 1,-0.47163 1,-1 0,-0.52837 -0.4717,-1.00747 -1,-1 l -42.9999996,0 z m 26.3437996,37.1562 9.5,9.5001 -10.6876,1.1875 1.1876,-10.6876 z" fill="#000000" fill-opacity="1" stroke="none" marker="none" visibility="visible" display="inline" overflow="visible"/></g></svg>