<svg xmlns:dc="http://purl.org/dc/elements/1.1/" xmlns:cc="http://creativecommons.org/ns#" xmlns:rdf="http://www.w3.org/1999/02/22-rdf-syntax-ns#" xmlns:svg="http://www.w3.org/2000/svg" xmlns="http://www.w3.org/2000/svg" xmlns:sodipodi="http://sodipodi.sourceforge.net/DTD/sodipodi-0.dtd" xmlns:inkscape="http://www.inkscape.org/namespaces/inkscape" version="1.1" x="0px" y="0px" viewBox="0 0 100 100"><g transform="translate(0,-952.36218)"><path style="font-size:medium;font-style:normal;font-variant:normal;font-weight:normal;font-stretch:normal;text-indent:0;text-align:start;text-decoration:none;line-height:normal;letter-spacing:normal;word-spacing:normal;text-transform:none;direction:ltr;block-progression:tb;writing-mode:lr-tb;text-anchor:start;baseline-shift:baseline;opacity:1;color:#FFFFFF;fill:#FFFFFF;fill-opacity:1;stroke:none;stroke-width:2;marker:none;visibility:visible;display:inline;overflow:visible;enable-background:accumulate;font-family:Sans;-inkscape-font-specification:Sans" d="M 22.875,11.96875 C 22.383772,12.030302 21.980739,12.505306 22,13 l 0,9 -14,0 c -0.5235845,5.2e-5 -0.9999476,0.476416 -1,1 l 0,64 c 5.24e-5,0.523584 0.4764155,0.999948 1,1 l 84,0 c 0.523584,-5.2e-5 0.999948,-0.476416 1,-1 l 0,-64 c 0.0026,-0.04161 0.0026,-0.08339 0,-0.125 C 92.939418,22.394368 92.484421,21.996245 92,22 l -14,0 0,-9 C 78.02261,12.421763 77.449092,11.896038 76.875,11.96875 76.383772,12.030302 75.980739,12.505306 76,13 l 0,9 -52,0 0,-9 c 0.02261,-0.578237 -0.550908,-1.103962 -1.125,-1.03125 z M 9,24 91,24 91,36 9,36 z m 0,14 82,0 0,48 -82,0 z m 10.8125,10 c -0.523599,0.04909 -0.955337,0.570151 -0.90625,1.09375 C 18.955338,49.617349 19.476401,50.049087 20,50 l 10,0 c 0.528313,0.0075 1.014242,-0.471635 1.014242,-1 0,-0.528365 -0.485929,-1.007472 -1.014242,-1 l -10,0 c -0.06232,-0.0059 -0.125184,-0.0059 -0.1875,0 z m 25,0 c -0.523599,0.04909 -0.955337,0.570151 -0.90625,1.09375 C 43.955338,49.617349 44.476401,50.049087 45,50 l 10,0 c 0.528313,0.0075 1.014242,-0.471635 1.014242,-1 0,-0.528365 -0.485929,-1.007472 -1.014242,-1 l -10,0 c -0.06232,-0.0059 -0.125184,-0.0059 -0.1875,0 z m 25,0 c -0.523599,0.04909 -0.955337,0.570151 -0.90625,1.09375 C 68.955338,49.617349 69.476401,50.049087 70,50 l 10,0 c 0.528313,0.0075 1.014242,-0.471635 1.014242,-1 0,-0.528365 -0.485929,-1.007472 -1.014242,-1 l -10,0 c -0.06232,-0.0059 -0.125184,-0.0059 -0.1875,0 z m -50,13 c -0.523599,0.04909 -0.955337,0.570151 -0.90625,1.09375 C 18.955338,62.617349 19.476401,63.049087 20,63 l 10,0 c 0.528313,0.0075 1.014242,-0.471635 1.014242,-1 0,-0.528365 -0.485929,-1.007472 -1.014242,-1 l -10,0 c -0.06232,-0.0059 -0.125184,-0.0059 -0.1875,0 z m 25,0 c -0.523599,0.04909 -0.955337,0.570151 -0.90625,1.09375 C 43.955338,62.617349 44.476401,63.049087 45,63 l 10,0 c 0.528313,0.0075 1.014242,-0.471635 1.014242,-1 0,-0.528365 -0.485929,-1.007472 -1.014242,-1 l -10,0 c -0.06232,-0.0059 -0.125184,-0.0059 -0.1875,0 z m 25,0 c -0.523599,0.04909 -0.955337,0.570151 -0.90625,1.09375 C 68.955338,62.617349 69.476401,63.049087 70,63 l 10,0 c 0.528313,0.0075 1.014242,-0.471635 1.014242,-1 0,-0.528365 -0.485929,-1.007472 -1.014242,-1 l -10,0 c -0.06232,-0.0059 -0.125184,-0.0059 -0.1875,0 z m -50,13 c -0.523599,0.04909 -0.955337,0.570151 -0.90625,1.09375 C 18.955338,75.617349 19.476401,76.049087 20,76 l 10,0 c 0.528313,0.0075 1.014242,-0.471635 1.014242,-1 0,-0.528365 -0.485929,-1.007472 -1.014242,-1 l -10,0 c -0.06232,-0.0059 -0.125184,-0.0059 -0.1875,0 z m 25,0 c -0.523599,0.04909 -0.955337,0.570151 -0.90625,1.09375 C 43.955338,75.617349 44.476401,76.049087 45,76 l 10,0 c 0.528313,0.0075 1.014242,-0.471635 1.014242,-1 0,-0.528365 -0.485929,-1.007472 -1.014242,-1 l -10,0 c -0.06232,-0.0059 -0.125184,-0.0059 -0.1875,0 z m 25,0 c -0.523599,0.04909 -0.955337,0.570151 -0.90625,1.09375 C 68.955338,75.617349 69.476401,76.049087 70,76 l 10,0 c 0.528313,0.0075 1.014242,-0.471635 1.014242,-1 0,-0.528365 -0.485929,-1.007472 -1.014242,-1 l -10,0 c -0.06232,-0.0059 -0.125184,-0.0059 -0.1875,0 z" transform="translate(0,952.36218)"/></g></svg>