<svg xmlns:dc="http://purl.org/dc/elements/1.1/" xmlns:cc="http://creativecommons.org/ns#" xmlns:rdf="http://www.w3.org/1999/02/22-rdf-syntax-ns#" xmlns:svg="http://www.w3.org/2000/svg" xmlns="http://www.w3.org/2000/svg" xmlns:sodipodi="http://sodipodi.sourceforge.net/DTD/sodipodi-0.dtd" xmlns:inkscape="http://www.inkscape.org/namespaces/inkscape" version="1.1" x="0px" y="0px" viewBox="0 0 100 125"><g transform="translate(0,-952.36218)"><path style="font-size:medium;font-style:normal;font-variant:normal;font-weight:normal;font-stretch:normal;text-indent:0;text-align:start;text-decoration:none;line-height:normal;letter-spacing:normal;word-spacing:normal;text-transform:none;direction:ltr;block-progression:tb;writing-mode:lr-tb;text-anchor:start;baseline-shift:baseline;opacity:1;color:#FFFFFF;fill:#FFFFFF;fill-opacity:1;fill-rule:nonzero;stroke:none;stroke-width:4;marker:none;visibility:visible;display:inline;overflow:visible;enable-background:accumulate;font-family:Sans;-inkscape-font-specification:Sans" d="M 69.71875 6 A 2.0002 2.0002 0 0 0 68.46875 6.6875 L 51.46875 26.6875 A 2.0066418 2.0066418 0 1 0 54.53125 29.28125 L 68 13.4375 L 68 82 C 67.98506 83.0566 68.943269 84.03125 70 84.03125 C 71.056731 84.03125 72.014943 83.0566 72 82 L 72 13.4375 L 85.46875 29.28125 A 2.0066418 2.0066418 0 1 0 88.53125 26.6875 L 71.53125 6.6875 A 2.0002 2.0002 0 0 0 69.71875 6 z M 29.78125 15.96875 C 28.798498 16.07674 27.978736 17.01156 28 18 L 28 86.53125 L 14.53125 70.6875 A 2.0002 2.0002 0 0 0 12.75 69.96875 A 2.0002 2.0002 0 0 0 11.46875 73.28125 L 28.46875 93.28125 A 2.0002 2.0002 0 0 0 31.53125 93.28125 L 48.53125 73.28125 A 2.0066256 2.0066256 0 0 0 45.46875 70.6875 L 32 86.53125 L 32 18 C 32.02444 16.86545 30.90924 15.84449 29.78125 15.96875 z " transform="translate(0,952.36218)"/></g></svg>