<svg xmlns="http://www.w3.org/2000/svg" xmlns:xlink="http://www.w3.org/1999/xlink" version="1.1" x="0px" y="0px" viewBox="0 0 100 125" enable-background="new 0 0 100 100" xml:space="preserve"><path d="M94.317,91.489l-25.07-25.07c12.946-14.42,12.489-36.688-1.374-50.551C60.927,8.922,51.692,5.097,41.87,5.097  S22.813,8.922,15.868,15.868C8.922,22.813,5.097,32.047,5.097,41.87c0,9.822,3.825,19.057,10.771,26.003  c6.945,6.946,16.18,10.771,26.002,10.771c9.152,0,17.793-3.324,24.549-9.397l25.07,25.07c0.391,0.391,0.902,0.586,1.414,0.586  s1.023-0.195,1.414-0.586C95.099,93.537,95.099,92.27,94.317,91.489z M41.87,74.644c-8.754,0-16.984-3.409-23.174-9.599  c-6.19-6.191-9.6-14.421-9.6-23.175c0-8.754,3.409-16.984,9.6-23.174c6.19-6.19,14.42-9.6,23.174-9.6s16.984,3.409,23.175,9.6  c12.778,12.777,12.778,33.569,0,46.349C58.854,71.235,50.624,74.644,41.87,74.644z"/></svg>